<svg xmlns="http://www.w3.org/2000/svg" version="1.1" xmlns:xlink="http://www.w3.org/1999/xlink" xmlns:svgjs="http://svgjs.dev/svgjs" width="100%" height="100%" viewBox="0 0 1000 600"><rect width="1000" height="600" x="0" y="0" fill="#ffffff"/><g><rect width="333.3333333333333" height="333.3333333333333" rx="13.333333333333334" ry="13.333333333333334" y="170.47006820787354" fill="#562d7d" transform="matrix(0.8431824831562602,0,0,0.8431824831562603,0,15.732186426801107)" x="148.24786376953128"/><path d="M269.38842724180085 382.8720914232814L244.63753062070427 382.8720914232814L192.77423878785095 333.3702981810883L244.63753062070427 284.07775164945997L269.38842724180085 284.07775164945997L217.3158886983827 333.3702981810883L269.38842724180085 382.8720914232814ZM357.4215076151455 262.13673942737677Q381.9631575256773 262.13673942737677 399.92848224702874 271.28380991778204Q417.89380696838026 280.43088040818725 427.4593708799152 297.4097563511617Q437.05482717867363 314.41852468135977 437.05482717867363 337.46555523071413L437.05482717867363 337.46555523071413Q437.05482717867363 360.482693392845 427.4593708799152 377.37189217414885Q417.89380696838026 394.26109095545263 399.92848224702874 403.1989147352931Q381.9631575256773 412.1367385151335 357.4215076151455 412.1367385151335L357.4215076151455 412.1367385151335L310.6997063847422 412.1367385151335L310.6997063847422 262.13673942737677L357.4215076151455 262.13673942737677ZM357.4215076151455 395.99484941441835Q386.4769079964328 395.99484941441835 401.7519178676651 380.60026999429186Q417.0269277388973 365.2056905741654 417.0269277388973 337.46555523071413L417.0269277388973 337.46555523071413Q417.0269277388973 309.48628078947456 401.63234831877094 293.76288510988906Q386.267661285868 278.03948943030355 357.4215076151455 278.03948943030355L357.4215076151455 278.03948943030355L330.3091124033888 278.03948943030355L330.3091124033888 395.99484941441835L357.4215076151455 395.99484941441835Z " fill="#ffffff" transform="matrix(0.8431824831562602,0,0,0.8431824831562603,0,15.732186426801107)"/><path d="M577.2053105476472 295.18695129195874L577.2053105476472 379.21768080923516L610.1056363073657 379.21768080923516L610.1056363073657 389.20394141853467L564.9145282592785 389.20394141853467L564.9145282592785 295.18695129195874L577.2053105476472 295.18695129195874ZM676.4871022337225 315.2718882022197L688.7591485734807 315.2718882022197L688.7591485734807 389.20394141853467L676.4871022337225 389.20394141853467L676.4871022337225 378.28088337871924Q672.983479843593 383.9391398590353 666.7069370591364 387.10551517417906Q660.4303942746799 390.2906264379331 652.8798069847218 390.2906264379331L652.8798069847218 390.2906264379331Q644.2425346753652 390.2906264379331 637.3664415353784 386.7120602533624Q630.4903483953916 383.1334940687916 626.499591341394 375.9763616996501Q622.5275702360065 368.837965279119 622.5275702360065 358.589401389275L622.5275702360065 358.589401389275L622.5275702360065 315.2718882022197L634.6684649354926 315.2718882022197L634.6684649354926 356.9593738601773Q634.6684649354926 367.88243189999275 640.1955697755365 373.7655197636326Q645.7226746155802 379.62987167866214 655.2967443554527 379.62987167866214L655.2967443554527 379.62987167866214Q665.15185332448 379.62987167866214 670.8101098047961 373.55942432891914Q676.4871022337225 367.4889769791761 676.4871022337225 355.8914247893892L676.4871022337225 355.8914247893892L676.4871022337225 315.2718882022197ZM745.5478088113547 313.9228999022768Q759.0376918107837 313.9228999022768 767.4126608395959 322.0917734963755Q775.7688939197977 330.2606470904741 775.7688939197977 345.6241249509349L775.7688939197977 345.6241249509349L775.7688939197977 389.20394141853467L763.6279992203116 389.20394141853467L763.6279992203116 347.3853041203048Q763.6279992203116 336.33109444021716 758.1008943802678 330.4480065765773Q752.5737895402241 324.58365466154777 742.9809838517411 324.58365466154777L742.9809838517411 324.58365466154777Q733.2757624715965 324.58365466154777 727.5425621968392 330.6541020112908Q721.8093619220818 336.72454936103384 721.8093619220818 348.3221015508207L721.8093619220818 348.3221015508207L721.8093619220818 389.20394141853467L709.5373155823235 389.20394141853467L709.5373155823235 315.2718882022197L721.8093619220818 315.2718882022197L721.8093619220818 325.8014913212184Q725.4441359524835 320.1432348409024 731.72067873694 317.0330673715896Q737.9972215213966 313.9228999022768 745.5478088113547 313.9228999022768L745.5478088113547 313.9228999022768ZM791.2822593691411 351.9756115298327Q791.2822593691411 340.6403626205903 795.872566778669 332.078034105675Q800.4628741881969 323.51570559075964 808.481860193413 318.7942465409595Q816.5008461986291 314.0727874911593 826.3559551676565 314.0727874911593L826.3559551676565 314.0727874911593Q836.0611765478012 314.0727874911593 843.2183089169426 318.25090403126023Q850.3754412860841 322.4290205713612 853.8790636762136 328.7617712016487L853.8790636762136 328.7617712016487L853.8790636762136 315.2718882022197L866.2822616562441 315.2718882022197L866.2822616562441 389.20394141853467L853.8790636762136 389.20394141853467L853.8790636762136 375.4517551385612Q850.2255536972017 381.91565740912097 843.0122134822292 386.16871774366314Q835.7988732672567 390.4217780782053 826.2248035273842 390.4217780782053L826.2248035273842 390.4217780782053Q816.369694558357 390.4217780782053 808.4069163989717 385.569167388133Q800.4628741881969 380.6978207494503 795.872566778669 371.92939679982146Q791.2822593691411 363.1609728501926 791.2822593691411 351.9756115298327L791.2822593691411 351.9756115298327ZM853.8790636762136 352.10676317010495Q853.8790636762136 343.7505300899031 850.5065929263563 337.53019515127755Q847.1341221764991 331.3285961612622 841.4009219017419 328.0310692058463Q835.6677216269845 324.71480630182 828.7916284869978 324.71480630182L828.7916284869978 324.71480630182Q821.8967993984007 324.71480630182 816.2385429180847 327.95612541140497Q810.5802864377687 331.19744452099 807.2078156879114 337.3990435110053Q803.8353449380542 343.60064250102056 803.8353449380542 351.9756115298327L803.8353449380542 351.9756115298327Q803.8353449380542 360.4629962503068 807.2078156879114 366.7395390347633Q810.5802864377687 373.0160818192199 816.2385429180847 376.31360877463584Q821.8967993984007 379.62987167866214 828.7916284869978 379.62987167866214L828.7916284869978 379.62987167866214Q835.6677216269845 379.62987167866214 841.4009219017419 376.31360877463584Q847.1341221764991 373.0160818192199 850.5065929263563 366.7395390347633Q853.8790636762136 360.4629962503068 853.8790636762136 352.10676317010495L853.8790636762136 352.10676317010495ZM956.6644777524184 262.13673794335773L968.9365240921767 262.13673794335773L931.9892334326295 412.1367425175639L919.8483387331434 412.1367425175639L956.6644777524184 262.13673794335773ZM1022.2215619399212 339.8347168303466L989.5835394607471 308.9391375719322L1005.0969049100905 308.9391375719322L1037.7349273892646 339.8347168303466L1005.0969049100905 370.86144772903333L989.5835394607471 370.86144772903333L1022.2215619399212 339.8347168303466Z " fill="#562d7d" transform="matrix(0.8431824831562602,0,0,0.8431824831562603,0,15.732186426801107)"/></g></svg>